<?xml version="1.0" encoding="UTF-8"?>
<!DOCTYPE svg PUBLIC "-//W3C//DTD SVG 1.1//EN" "http://www.w3.org/Graphics/SVG/1.1/DTD/svg11.dtd">
<!-- Creator: CorelDRAW -->
<svg xmlns="http://www.w3.org/2000/svg" xml:space="preserve" width="0.106657in" height="0.0799961in" version="1.1" style="shape-rendering:geometricPrecision; text-rendering:geometricPrecision; image-rendering:optimizeQuality; fill-rule:evenodd; clip-rule:evenodd"
viewBox="0 0 7.06 5.29"
 xmlns:xlink="http://www.w3.org/1999/xlink"
 xmlns:xodm="http://www.corel.com/coreldraw/odm/2003">
 <defs>
  <style type="text/css">
   <![CDATA[
    .fil0 {fill:black;fill-rule:nonzero}
   ]]>
  </style>
 </defs>
 <g id="Layer_x0020_1">
  <metadata id="CorelCorpID_0Corel-Layer"/>
  <path class="fil0" d="M3.53 3.97c-0.23,0 -0.46,-0.07 -0.65,-0.23l-2.88 -2.24 0 3.13c0,0.37 0.3,0.66 0.66,0.66l5.73 0c0.37,0 0.66,-0.3 0.66,-0.66l0 -3.13 -2.88 2.24c-0.19,0.15 -0.42,0.22 -0.65,0.22zm-3.3 -2.85l2.93 2.28c0.22,0.17 0.54,0.17 0.76,0l2.93 -2.28c0.13,-0.11 0.22,-0.28 0.22,-0.46 0,-0.37 -0.3,-0.66 -0.66,-0.66l-5.73 0c-0.37,0 -0.66,0.3 -0.66,0.66 0,0.18 0.08,0.35 0.22,0.46z"/>
 </g>
</svg>
