<?xml version="1.0" encoding="UTF-8"?>
<!DOCTYPE svg PUBLIC "-//W3C//DTD SVG 1.1//EN" "http://www.w3.org/Graphics/SVG/1.1/DTD/svg11.dtd">
<!-- Creator: CorelDRAW -->
<svg xmlns="http://www.w3.org/2000/svg" xml:space="preserve" width="0.120276in" height="0.170469in" version="1.1" style="shape-rendering:geometricPrecision; text-rendering:geometricPrecision; image-rendering:optimizeQuality; fill-rule:evenodd; clip-rule:evenodd"
viewBox="0 0 9.05 12.83"
 xmlns:xlink="http://www.w3.org/1999/xlink"
 xmlns:xodm="http://www.corel.com/coreldraw/odm/2003">
 <defs>
  <style type="text/css">
   <![CDATA[
    .fil0 {fill:black}
   ]]>
  </style>
 </defs>
 <g id="Layer_x0020_1">
  <metadata id="CorelCorpID_0Corel-Layer"/>
  <path class="fil0" d="M4.53 0c2.5,0 4.53,2.03 4.53,4.53 0,0.86 -0.24,1.67 -0.66,2.35l0 0 -3.51 5.75c-0.08,0.13 -0.21,0.2 -0.36,0.2 -0.15,0 -0.28,-0.07 -0.36,-0.2l-3.51 -5.75 0 0c-0.42,-0.69 -0.66,-1.49 -0.66,-2.35 0,-2.5 2.03,-4.53 4.53,-4.53zm0 2.89c0.87,0 1.57,0.7 1.57,1.57 0,0.87 -0.7,1.57 -1.57,1.57 -0.87,0 -1.57,-0.7 -1.57,-1.57 0,-0.87 0.7,-1.57 1.57,-1.57z"/>
 </g>
</svg>
