<?xml version="1.0" encoding="UTF-8"?>
<!DOCTYPE svg PUBLIC "-//W3C//DTD SVG 1.1//EN" "http://www.w3.org/Graphics/SVG/1.1/DTD/svg11.dtd">
<!-- Creator: CorelDRAW -->
<svg xmlns="http://www.w3.org/2000/svg" xml:space="preserve" width="0.106654in" height="0.106654in" version="1.1" style="shape-rendering:geometricPrecision; text-rendering:geometricPrecision; image-rendering:optimizeQuality; fill-rule:evenodd; clip-rule:evenodd"
viewBox="0 0 7.06 7.06"
 xmlns:xlink="http://www.w3.org/1999/xlink"
 xmlns:xodm="http://www.corel.com/coreldraw/odm/2003">
 <defs>
  <style type="text/css">
   <![CDATA[
    .fil0 {fill:black}
   ]]>
  </style>
 </defs>
 <g id="Layer_x0020_1">
  <metadata id="CorelCorpID_0Corel-Layer"/>
  <path class="fil0" d="M5.18 4.23c-0.47,0.47 -0.47,0.94 -0.94,0.94 -0.47,0 -0.94,-0.47 -1.41,-0.94 -0.47,-0.47 -0.94,-0.94 -0.94,-1.41 0,-0.47 0.47,-0.47 0.94,-0.94 0.47,-0.47 -0.94,-1.88 -1.41,-1.88 -0.47,0 -1.41,1.41 -1.41,1.41 0,0.94 0.97,2.85 1.88,3.76 0.92,0.92 2.82,1.88 3.76,1.88 0,0 1.41,-0.94 1.41,-1.41 0,-0.47 -1.41,-1.88 -1.88,-1.41z"/>
 </g>
</svg>
